<?xml version="1.0" encoding="utf-8"?>
<!-- Generator: Adobe Illustrator 23.0.3, SVG Export Plug-In . SVG Version: 6.00 Build 0)  -->
<svg version="1.1" id="Capa_2" xmlns="http://www.w3.org/2000/svg" xmlns:xlink="http://www.w3.org/1999/xlink" x="0px" y="0px"
	 viewBox="0 0 500 500" style="enable-background:new 0 0 500 500;" xml:space="preserve">
<style type="text/css">
	.st0{fill:#8B7058;}
	.st1{fill:#E77171;}
	.st2{fill:#7F6248;}
	.st3{fill:none;stroke:#59422F;stroke-width:5;stroke-miterlimit:10;}
	.st4{fill:#FFCF4F;}
	.st5{fill:#FFFA81;}
	.st6{fill:#DB9F28;}
	.st7{fill:url(#SVGID_1_);}
	.st8{fill:url(#SVGID_2_);}
	.st9{fill:none;}
	.st10{fill:#AF411D;}
	.st11{fill:#D35E61;}
	.st12{fill:#FFFFFF;}
</style>
<path class="st0" d="M376.8,123.8h-55.1h-20.9h-43.1H228h-79.3h-34.5H49.3c-10.6,0-19.3,8.3-19.9,18.8c0,0.4-0.1,0.8-0.1,1.2v23.7
	v27.7v16.5V239v6.5c0,6.9,3.5,12.9,8.8,16.5c3.2,2.2,7.1,3.5,11.2,3.5h42.8h41.8h83.3h30.1h96.4h33.2c11,0,20-9,20-20v-3v-39.6
	v-13.1v-16v-9.8v-9.7v-8.6v-1.8C396.8,132.7,387.9,123.8,376.8,123.8z"/>
<path class="st1" d="M408.2,295.2c-2.9-3.7-5.2-3.7-25.5-7.8l-2.3,40.2l3.3-57.1c0.2-3.4-2.3-5.5-5.6-6.3
	c-17.7-4-75.5-14.3-165-14.3c-89.6,0-147.4,10.3-165,14.3c-3.3,0.8-5.8,2.9-5.6,6.3l3.3,57.1l-2.3-40.2c-20.3,4-22.6,4.1-25.5,7.8
	c-3.1,3.9,19,19.2,18.8,21.1c-0.2,2-11.5,21.3-12.9,24.7s5.9,3.1,10.6,2.2c4.7-1,56.5-10.4,56.5-10.4v-9.8
	c29.6-4.2,72-8.4,122.2-8.4s92.6,4.2,122.2,8.4v9.8c0,0,51.8,9.4,56.5,10.4c4.7,1,11.9,1.2,10.6-2.2s-12.7-22.7-12.9-24.7
	C389.2,314.4,411.3,299.1,408.2,295.2z M87,323.5c1.1-0.2,2.3-0.3,3.5-0.5C89.3,323.2,88.2,323.3,87,323.5z M49,330.2
	c0.3-0.1,0.7-0.2,1.1-0.2C49.7,330,49.3,330.1,49,330.2z M50.3,329.9c0.4-0.1,0.8-0.2,1.2-0.3C51.1,329.7,50.7,329.8,50.3,329.9z
	 M51.8,329.6c0.5-0.1,0.9-0.2,1.5-0.3C52.8,329.4,52.3,329.5,51.8,329.6z M53.3,329.3c0.5-0.1,1-0.2,1.6-0.3
	C54.3,329.1,53.8,329.2,53.3,329.3z M55.2,328.9c0.6-0.1,1.1-0.2,1.7-0.3C56.3,328.7,55.8,328.8,55.2,328.9z M57.3,328.5
	c0.6-0.1,1.3-0.2,2-0.4C58.6,328.2,57.9,328.4,57.3,328.5z M59.3,328.1c0.7-0.1,1.4-0.3,2.1-0.4C60.7,327.8,60,328,59.3,328.1z
	 M61.8,327.6c0.7-0.1,1.5-0.3,2.2-0.4C63.3,327.4,62.5,327.5,61.8,327.6z M64.5,327.1c0.8-0.1,1.6-0.3,2.5-0.4
	C66.1,326.9,65.3,327,64.5,327.1z M67,326.7c0.9-0.1,1.7-0.3,2.6-0.5C68.7,326.4,67.8,326.6,67,326.7z M70,326.2
	c0.9-0.2,1.8-0.3,2.7-0.5C71.8,325.9,70.9,326,70,326.2z M73.2,325.6c1-0.2,2-0.3,3-0.5C75.2,325.3,74.2,325.5,73.2,325.6z
	 M76.3,325.1c1-0.2,2-0.3,3.1-0.5C78.3,324.8,77.2,325,76.3,325.1z M79.8,324.6c1-0.2,2.1-0.3,3.1-0.5
	C81.9,324.3,80.8,324.4,79.8,324.6z M83.5,324c1.1-0.2,2.2-0.3,3.4-0.5C85.8,323.7,84.6,323.8,83.5,324z M376,329.9
	c0.4,0.1,0.8,0.2,1.1,0.2C376.7,330.1,376.4,330,376,329.9z M335.6,323c1.2,0.2,2.3,0.3,3.5,0.5C337.9,323.3,336.7,323.2,335.6,323z
	 M339.2,323.5c1.2,0.2,2.3,0.3,3.4,0.5C341.4,323.8,340.3,323.7,339.2,323.5z M343.1,324.1c1.1,0.2,2.1,0.3,3.1,0.5
	C345.3,324.4,344.2,324.3,343.1,324.1z M346.8,324.7c1,0.2,2.1,0.3,3.1,0.5C348.8,325,347.8,324.8,346.8,324.7z M349.9,325.2
	c1,0.2,2,0.3,3,0.5C351.9,325.5,350.9,325.3,349.9,325.2z M353.3,325.7c0.9,0.2,1.8,0.3,2.7,0.5C355.2,326,354.2,325.9,353.3,325.7z
	 M356.5,326.2c0.9,0.2,1.8,0.3,2.6,0.5C358.2,326.6,357.4,326.4,356.5,326.2z M359.1,326.7c0.9,0.1,1.7,0.3,2.5,0.4
	C360.8,327,360,326.9,359.1,326.7z M362,327.2c0.8,0.1,1.5,0.3,2.2,0.4C363.5,327.5,362.8,327.4,362,327.2z M364.6,327.7
	c0.7,0.1,1.4,0.3,2.1,0.4C366.1,328,365.4,327.8,364.6,327.7z M366.8,328.1c0.7,0.1,1.3,0.3,2,0.4
	C368.1,328.4,367.5,328.2,366.8,328.1z M369.1,328.5c0.6,0.1,1.2,0.2,1.7,0.3C370.3,328.8,369.7,328.7,369.1,328.5z M371.2,328.9
	c0.6,0.1,1.1,0.2,1.6,0.3C372.3,329.2,371.7,329.1,371.2,328.9z M372.8,329.3c0.5,0.1,1,0.2,1.5,0.3
	C373.8,329.5,373.3,329.4,372.8,329.3z M374.5,329.6c0.4,0.1,0.8,0.2,1.2,0.3C375.4,329.8,375,329.7,374.5,329.6z"/>
<g>
	<path class="st2" d="M105,235.3c-29.3-21.8-56.8-33.8-75.7-40.2v16.5c15.8,6.8,34.8,16.6,46.8,28.4c8.4,8.3,13.3,17.3,16,25.4h41.8
		C126.5,254.7,117,244.3,105,235.3z"/>
	<path class="st2" d="M335.2,158.6c24.7,1.5,45.7-1,61.6-4.4v-8.6c-3.3,0.9-6.9,1.8-10.9,2.5c-39.1,7.5-69.3,0.7-67.7-16.9
		c0.2-2.5,1.5-5,3.4-7.4h-20.9C286.7,136.2,282,155.3,335.2,158.6z"/>
	<path class="st2" d="M376.8,265.4c11,0,20-9,20-20v-3c-17.2,4.1-36.1,11.1-53.2,23H376.8z"/>
	<path class="st2" d="M296.3,188.3c46.3-2.6,78.5-8.5,100.5-14.6v-9.8c-13.2,3.6-29.9,6.9-50,8.8c-77.7,7-102.9-12.1-103.3-27
		c-0.2-7,5.3-14.2,14.2-21.9H228c-2.2,1.4-4.3,2.8-6,3.9C206.3,138.3,179.7,195,296.3,188.3z"/>
	<path class="st2" d="M29.3,239v6.5c0,6.9,3.5,12.9,8.8,16.5c-0.8-8.2-3.2-16.6-8.5-22.8C29.4,239.1,29.3,239,29.3,239z"/>
	<path class="st2" d="M328.8,216.1c24-7.6,47.8-11.5,68-13.3v-13.1c-77.9,18.9-164,17.1-201.4,14.2c-46.2-3.5-80.2-24.3-71.2-51.3
		c3.1-9.3,12.9-19.5,24.5-29h-34.5c-29,12-61,16.9-84.8,18.8c0,0.4-0.1,0.8-0.1,1.2v23.7c20.4,2.9,45.9,8.7,73.4,19.7
		c41,16.5,84.5,43,114.5,78.3h30.1C258.2,253.4,283.8,230.4,328.8,216.1z"/>
	<path class="st0" d="M49.3,123.8c-10.6,0-19.3,8.3-19.9,18.8c23.8-2,55.8-6.8,84.8-18.8H49.3z"/>
	<path class="st0" d="M102.7,187.2c-27.5-11-53-16.8-73.4-19.7v27.7c19,6.4,46.5,18.4,75.7,40.2c12,9,21.5,19.4,28.9,30.1h83.3
		C187.1,230.1,143.7,203.6,102.7,187.2z"/>
	<path class="st0" d="M124.2,152.7c-9,27,25,47.7,71.2,51.3c37.4,2.9,123.5,4.7,201.4-14.2v-16c-22,6.1-54.1,12-100.5,14.6
		c-116.6,6.7-90-50.1-74.3-60.7c1.7-1.2,3.7-2.5,6-3.9h-79.3C137.1,133.2,127.3,143.5,124.2,152.7z"/>
	<path class="st0" d="M243.5,145.7c0.4,14.9,25.6,34,103.3,27c20.1-1.8,36.7-5.1,50-8.8v-9.7c-15.9,3.4-36.9,5.9-61.6,4.4
		c-53.2-3.3-48.5-22.4-34.4-34.8h-43.1C248.8,131.5,243.3,138.7,243.5,145.7z"/>
	<path class="st0" d="M386,148.2c3.9-0.8,7.5-1.6,10.9-2.5v-1.8c0-11-9-20-20-20h-55.1c-2,2.4-3.2,4.9-3.4,7.4
		C316.7,148.8,346.8,155.7,386,148.2z"/>
	<path class="st0" d="M328.8,216.1c-45,14.3-70.6,37.3-81.6,49.3h96.4c17.1-11.9,36-18.9,53.2-23v-39.6
		C376.6,204.7,352.8,208.5,328.8,216.1z"/>
	<path class="st0" d="M29.3,211.6V239c0.1,0.1,0.2,0.2,0.2,0.3c5.4,6.2,7.7,14.5,8.5,22.8c3.2,2.2,7.1,3.5,11.2,3.5h42.8
		c-2.8-8.2-7.6-17.2-16-25.4C64.1,228.3,45.1,218.4,29.3,211.6z"/>
</g>
<path class="st3" d="M376.8,123.8h-55.1h-20.9h-43.1H228h-79.3h-34.5H49.3c-10.6,0-19.3,8.3-19.9,18.8c0,0.4-0.1,0.8-0.1,1.2v23.7
	v27.7v16.5V239v6.5c0,6.9,3.5,12.9,8.8,16.5c3.2,2.2,7.1,3.5,11.2,3.5h42.8h41.8h83.3h30.1h96.4h33.2c11,0,20-9,20-20v-3v-39.6
	v-13.1v-16v-9.8v-9.7v-8.6v-1.8C396.8,132.7,387.9,123.8,376.8,123.8z"/>
<g>
	<path class="st4" d="M117.3,226.1l-31.8-84.6l-35.3,3.1l1.2,14.2l13.6-1.2l-13.1,75l-7.8,0.7l1.1,12.7l20.7-1.8l5.6-32.9l21.8-1.9
		l6.7,18.3l-15.2,1.3l1.2,13.4l40.7-3.6l-1.2-13.4L117.3,226.1z M73.7,198.5l5-29.3l10.3,28L73.7,198.5z"/>
	<g>
		<polygon class="st5" points="124.3,227 127,223.7 118.3,224.5 116.3,227.7 		"/>
		<polygon class="st5" points="79.2,175 86.9,195.8 75.6,196.8 71.9,200.1 91,198.4 78.2,163.3 		"/>
		<polygon class="st5" points="84.7,244 87.5,240.7 86.5,230.3 102.2,228.9 94.4,207.7 92.4,210.9 98,226.2 83.3,227.5 		"/>
		<polygon class="st6" points="116.3,227.7 118.3,224.5 86.5,139.9 84.5,143 		"/>
		<polygon class="st6" points="125.2,237.4 87.5,240.7 84.7,244 128.5,240.2 127,223.7 124.3,227 		"/>
		<polygon class="st6" points="70.3,209.8 64.7,242.7 46.7,244.3 44,247.5 67.3,245.5 72.9,212.6 92.4,210.9 94.4,207.7 		"/>
		<polygon class="st6" points="79.2,175 78.2,163.3 71.9,200.1 75.6,196.8 		"/>
		<polygon class="st5" points="50.8,231.2 42.6,231.9 44,247.5 46.7,244.3 45.9,234.6 53.3,234 66.9,155.9 63.3,159.2 		"/>
		<polygon class="st6" points="63.3,159.2 66.9,155.9 52.8,157.1 50.1,160.4 		"/>
		<polygon class="st5" points="84.5,143 86.5,139.9 48.6,143.2 50.1,160.4 52.8,157.1 51.9,145.9 		"/>
	</g>
</g>
<g>
	<path class="st4" d="M166.7,227.4c-16.6,0.9-26.3-13.2-27.3-30.9c-0.9-17.7,10.4-32.7,26.9-33.6c3.1-0.2,5.9,0.1,8.6,0.7
		c4.5,1,8.4,2.9,11.7,5.6l0,0l5.2-15.1l3.5-10.1l-15.1-3.1l-1.6,6.9c-5.1-1.6-10.4-2.3-15.7-2c-25.5,1.3-42.5,25-41.1,52.3
		c1.4,27.2,19.3,46.4,44.8,45.1c15.5-0.8,25.1-6,33-12.7l-8.8-12.6C185.9,223.2,178.1,226.8,166.7,227.4z"/>
	<g>
		<polygon class="st6" points="190.7,220.1 197.7,230.1 201.7,230.6 191.1,215.4 		"/>
		<path class="st6" d="M191.1,215.4l-0.4,4.7l7,10c-6.2,5.1-15.3,10.6-31,11.5l0.2,3c13.7-0.7,24.1-4.7,33.9-13l1-0.9L191.1,215.4z"
			/>
		<path class="st5" d="M197.7,230.1c-6.2,5.1-15.3,10.6-31,11.5c-11.2,0.6-21.1-3-28.6-9.8c-8.5-7.7-13.9-19.5-14.7-33.9
			c-1.4-27.2,16-49.5,39.7-50.7c5.1-0.3,10.2,0.4,15.2,2l1.5,0.5l1.7-7l12,2.5l4-2.2l-18.2-3.8l-1.6,6.7c-4.9-1.4-9.8-1.9-14.7-1.6
			c-25.4,1.3-44,25-42.5,53.9c0.8,15.3,6.6,27.8,15.6,36c8,7.3,18.7,11.1,30.8,10.5c13.7-0.7,24.1-4.7,33.9-13l1-0.9L197.7,230.1z"
			/>
		<path class="st5" d="M123.4,197.9c-1.4-27.2,16-49.5,39.7-50.7c5.1-0.3,10.2,0.4,15.2,2l1.5,0.5l1.7-7l12,2.5l4-2.2l-18.2-3.8
			l-1.6,6.7c-4.9-1.4-9.8-1.9-14.7-1.6c-25.4,1.3-44,25-42.5,53.9c0.8,15.3,6.6,27.8,15.6,36l2-2.3
			C129.6,224,124.2,212.2,123.4,197.9z"/>
		<linearGradient id="SVGID_1_" gradientUnits="userSpaceOnUse" x1="136.0588" y1="237.349" x2="201.7115" y2="237.349">
			<stop  offset="0" style="stop-color:#FFFA81"/>
			<stop  offset="0.3196" style="stop-color:#FFFA81"/>
			<stop  offset="0.6996" style="stop-color:#DB9F28"/>
		</linearGradient>
		<path class="st7" d="M166.7,241.5c-11.2,0.6-21.1-3-28.6-9.8l-2,2.3c8,7.3,18.7,11.1,30.8,10.5c13.7-0.7,24.1-4.7,33.9-13l1-0.9
			l-4-0.5C191.5,235.2,182.4,240.7,166.7,241.5z"/>
		<path class="st6" d="M166.6,225.9c-7.3,0.4-13-2.3-17.1-6.7c-5.3-5.7-8.1-14.2-8.5-22.8c-0.9-17.4,10.1-31.2,25.5-32
			c2.8-0.1,5.6,0.1,8.2,0.6c4.2,0.9,7.9,2.7,11.1,5.3l0.7,0.6l1.4-0.7l9.5-27.4l-4,2.2l-7.5,21.6c-3.2-2.2-6.8-3.8-10.7-4.7
			c-2.9-0.6-5.9-0.8-9-0.7c-16.9,0.9-29.3,16.3-28.4,35.2c0.6,10.6,4,19.2,9.5,24.9c5,5.1,11.6,7.9,19.3,7.5
			c10.3-0.5,18.4-3.5,24-8.8l0.4-4.7l-1.3,1.4C184.8,222.3,177,225.4,166.6,225.9z"/>
		<path class="st6" d="M140.9,196.4c-0.9-17.4,10.1-31.2,25.5-32c2.8-0.1,5.6,0.1,8.2,0.6c4.2,0.9,7.9,2.7,11.1,5.3l0.7,0.6l1.4-0.7
			l9.5-27.4l-4,2.2l-7.5,21.6c-3.2-2.2-6.8-3.8-10.7-4.7c-2.9-0.6-5.9-0.8-9-0.7c-16.9,0.9-29.3,16.3-28.4,35.2
			c0.6,10.6,4,19.2,9.5,24.9l2-2.3C144.2,213.5,141.4,205,140.9,196.4z"/>
		<linearGradient id="SVGID_2_" gradientUnits="userSpaceOnUse" x1="147.4155" y1="222.1619" x2="191.0837" y2="222.1619">
			<stop  offset="0.1397" style="stop-color:#DB9F28"/>
			<stop  offset="0.5112" style="stop-color:#FFFA81"/>
			<stop  offset="1" style="stop-color:#FFFA81"/>
		</linearGradient>
		<path class="st8" d="M166.6,225.9c-7.3,0.4-13-2.3-17.1-6.7l-2,2.3c5,5.1,11.6,7.9,19.3,7.5c10.3-0.5,18.4-3.5,24-8.8l0.4-4.7
			l-1.3,1.4C184.8,222.3,177,225.4,166.6,225.9z"/>
	</g>
</g>
<g>
	<polygon class="st4" points="208.8,137.8 208.3,148.5 216.7,149 212.8,223.2 204.4,222.8 203.7,235.8 244,238 244.6,224.9 
		229.2,224.1 232,170.1 265,236.5 283.2,237.5 287.7,150.7 295.5,151.1 296.1,140 260.4,138.1 259.8,149.2 272.9,149.9 269.8,209.1 
		232.7,139 	"/>
	<g>
		<polygon class="st9" points="261.3,147.8 274.4,148.5 271,214.6 231.8,140.5 210.3,139.3 209.9,147.1 218.3,147.5 214.2,224.8 
			205.8,224.3 205.3,234.4 242.5,236.4 243.1,226.3 227.6,225.5 230.8,164.3 265.9,235.1 281.7,235.9 286.3,149.1 294.1,149.5 
			294.5,141.4 261.8,139.7 		"/>
		<polygon class="st5" points="218.3,147.5 215.1,150.4 211.4,221.6 214.2,224.8 		"/>
		<polygon class="st5" points="231.8,140.5 233.6,137.6 207.4,136.2 210.3,139.3 		"/>
		<polygon class="st6" points="209.9,147.1 206.7,149.9 215.1,150.4 218.3,147.5 		"/>
		<polygon class="st5" points="210.3,139.3 207.4,136.2 206.7,149.9 209.9,147.1 		"/>
		<polygon class="st5" points="274.4,148.5 271.3,151.4 268.5,203.6 271,214.6 		"/>
		<polygon class="st6" points="271,214.6 268.5,203.6 233.6,137.6 231.8,140.5 		"/>
		<polygon class="st6" points="294.5,141.4 294.1,149.5 296.9,152.7 297.7,138.6 		"/>
		<polygon class="st6" points="286.3,149.1 289.1,152.3 296.9,152.7 294.1,149.5 		"/>
		<polygon class="st5" points="294.5,141.4 297.7,138.6 258.9,136.5 261.8,139.7 		"/>
		<polygon class="st5" points="261.8,139.7 258.9,136.5 258.2,150.7 261.3,147.8 		"/>
		<polygon class="st6" points="261.3,147.8 258.2,150.7 271.3,151.4 274.4,148.5 		"/>
		<polygon class="st6" points="265.9,235.1 264,238 284.6,239 281.7,235.9 		"/>
		<polygon class="st6" points="227.6,225.5 230.8,222.6 233.2,175.9 230.8,164.3 		"/>
		<polygon class="st5" points="230.8,164.3 233.2,175.9 264,238 265.9,235.1 		"/>
		<polygon class="st5" points="214.2,224.8 211.4,221.6 203,221.2 205.8,224.3 		"/>
		<polygon class="st6" points="281.7,235.9 284.6,239 289.1,152.3 286.3,149.1 		"/>
		<polygon class="st5" points="205.8,224.3 203,221.2 202.1,237.3 205.3,234.4 		"/>
		<polygon class="st6" points="205.3,234.4 202.1,237.3 245.4,239.5 242.5,236.4 		"/>
		<polygon class="st6" points="242.5,236.4 245.4,239.5 246.2,223.4 243.1,226.3 		"/>
		<polygon class="st5" points="243.1,226.3 246.2,223.4 230.8,222.6 227.6,225.5 		"/>
	</g>
</g>
<g>
	<polygon class="st4" points="367.2,238.1 373.8,162.8 380.7,163.4 381.8,150.6 348.3,147.7 347.2,160.1 357.1,161 354.1,194.7 
		323.2,192 326.1,158.9 336.2,159.8 337.4,146.7 303.1,143.7 301.8,158.3 309.2,159 302.9,230.5 294,229.7 292.7,243.8 329.8,247 
		331,232.9 319.7,231.9 321.9,206.7 352.8,209.4 349.4,248.7 374.5,250.9 375.5,238.8 	"/>
	<g>
		<polygon class="st9" points="372.4,161.2 379.3,161.8 380.2,152 349.7,149.3 348.8,158.7 358.7,159.6 355.5,196.4 321.6,193.4 
			324.7,157.3 334.9,158.2 335.8,148.1 304.4,145.4 303.4,157 310.8,157.6 304.3,232.1 295.3,231.3 294.4,242.4 328.4,245.4 
			329.4,234.3 318.1,233.3 320.6,205.1 354.5,208.1 351,247.4 373.1,249.3 373.9,240.1 365.6,239.4 		"/>
		<polygon class="st5" points="349.7,149.3 346.9,146.1 345.6,161.5 348.8,158.7 		"/>
		<polygon class="st5" points="358.7,159.6 355.5,162.3 352.8,193.1 355.5,196.4 		"/>
		<polygon class="st6" points="348.8,158.7 345.6,161.5 355.5,162.3 358.7,159.6 		"/>
		<polygon class="st5" points="355.5,196.4 352.8,193.1 324.8,190.7 321.6,193.4 		"/>
		<polygon class="st6" points="324.7,157.3 327.5,160.5 337.6,161.4 334.9,158.2 		"/>
		<polygon class="st6" points="321.6,193.4 324.8,190.7 327.5,160.5 324.7,157.3 		"/>
		<polygon class="st5" points="380.2,152 383.4,149.3 346.9,146.1 349.7,149.3 		"/>
		<polygon class="st6" points="334.9,158.2 337.6,161.4 339,145.4 335.8,148.1 		"/>
		<polygon class="st6" points="365.6,239.4 368.9,236.7 375.2,164.4 372.4,161.2 		"/>
		<polygon class="st5" points="373.9,240.1 377.2,237.4 368.9,236.7 365.6,239.4 		"/>
		<polygon class="st6" points="372.4,161.2 375.2,164.4 382.1,165 379.3,161.8 		"/>
		<polygon class="st6" points="379.3,161.8 382.1,165 383.4,149.3 380.2,152 		"/>
		<polygon class="st5" points="329.4,234.3 332.6,231.6 321.3,230.6 318.1,233.3 		"/>
		<polygon class="st6" points="318.1,233.3 321.3,230.6 323.3,208.3 320.6,205.1 		"/>
		<polygon class="st6" points="373.9,240.1 373.1,249.3 375.8,252.6 377.2,237.4 		"/>
		<polygon class="st6" points="320.6,205.1 323.3,208.3 351.2,210.8 354.5,208.1 		"/>
		<polygon class="st6" points="328.4,245.4 331.1,248.6 332.6,231.6 329.4,234.3 		"/>
		<polygon class="st6" points="351,247.4 347.8,250.1 375.8,252.6 373.1,249.3 		"/>
		<polygon class="st5" points="354.5,208.1 351.2,210.8 347.8,250.1 351,247.4 		"/>
		<polygon class="st5" points="335.8,148.1 339,145.4 301.7,142.1 304.4,145.4 		"/>
		<polygon class="st6" points="294.4,242.4 291.1,245.1 331.1,248.6 328.4,245.4 		"/>
		<polygon class="st5" points="310.8,157.6 307.6,160.4 301.6,228.8 304.3,232.1 		"/>
		<polygon class="st5" points="304.4,145.4 301.7,142.1 300.2,159.7 303.4,157 		"/>
		<polygon class="st6" points="303.4,157 300.2,159.7 307.6,160.4 310.8,157.6 		"/>
		<polygon class="st5" points="304.3,232.1 301.6,228.8 292.6,228.1 295.3,231.3 		"/>
		<polygon class="st5" points="295.3,231.3 292.6,228.1 291.1,245.1 294.4,242.4 		"/>
	</g>
</g>
<g>
	<path class="st10" d="M90.8,332.8v-9.8c-21.2,3-35.8,5.9-41.9,7.2C52.9,330.8,90.8,332.8,90.8,332.8z"/>
	<path class="st11" d="M45.6,327.6l-2.3-40.2c-20.3,4-22.6,4.1-25.5,7.8c-3.1,3.9,19,19.2,18.8,21.1c-0.2,2-11.5,21.3-12.9,24.7
		s5.9,3.1,10.6,2.2c4.7-1,56.5-10.4,56.5-10.4s-38-2-41.9-2.6C47.3,330.5,45.7,329.3,45.6,327.6z"/>
	<path class="st1" d="M378.1,264.3c-17.7-4-75.5-14.3-165-14.3c-89.6,0-147.4,10.3-165,14.3c-3.3,0.8-5.8,2.9-5.6,6.3l3.3,57.1
		c0.1,1.7,1.7,2.9,3.3,2.5c14.5-3.1,77.9-15.6,164-15.6s149.6,12.5,164,15.6c1.7,0.4,3.2-0.8,3.3-2.5l3.3-57.1
		C383.9,267.2,381.4,265,378.1,264.3z"/>
	<path class="st10" d="M335.2,332.8v-9.8c21.2,3,35.8,5.9,41.9,7.2C373.2,330.8,335.2,332.8,335.2,332.8z"/>
	<path class="st11" d="M380.4,327.6l2.3-40.2c20.3,4,22.6,4.1,25.5,7.8c3.1,3.9-19,19.2-18.8,21.1c0.2,2,11.5,21.3,12.9,24.7
		s-5.9,3.1-10.6,2.2c-4.7-1-56.5-10.4-56.5-10.4s38-2,41.9-2.6C378.7,330.5,380.3,329.3,380.4,327.6z"/>
</g>
<g>
	<g>
		<path class="st12" d="M119.8,272.1c1.3,12.5,2.5,25,3.8,37.5c-4.2,0.4-6.4,0.7-10.6,1.1c-1.4-12.5-2.8-25-4.2-37.4
			c-4.9,0.6-7.4,0.8-12.3,1.5c-0.5-3.6-0.7-5.4-1.1-9c12-1.5,24-2.8,36-3.8c0.3,3.6,0.5,5.5,0.8,9.1
			C127.2,271.3,124.8,271.6,119.8,272.1z"/>
		<path class="st12" d="M156.1,281.1c-3.8,0.2-6.3,1.9-7.4,4.9c0.6,8.5,0.9,12.7,1.5,21.2c-4,0.3-6,0.4-10,0.8
			c-0.9-11.1-1.8-22.2-2.7-33.3c3.6-0.3,5.4-0.4,8.9-0.7c0.1,1.3,0.1,2,0.2,3.3c2.2-3,5.1-4.4,11.3-4.8c0.8,3.5,1.2,5.3,2,8.8
			C158.6,281.1,157.3,281.1,156.1,281.1z"/>
		<path class="st12" d="M195.1,305.6c-1,0.3-1.9,0.4-2.9,0.4c-3.4,0.1-6.5-1.3-7.3-3.6c-2,2.8-6.2,4-10.7,4.2
			c-6.5,0.3-10.1-3-10.5-8.7c0-0.1,0-0.1,0-0.2c-0.3-6.3,2.9-10.2,10.7-12.2c4.2-1.1,6.9-2.3,6.8-3.7c-0.1-1.9-1.1-2.3-4.3-2.2
			c-2.6,0.1-7.3,2.4-9.2,5.3c-1.8-2.9-2.7-4.3-4.4-7.2c3.1-3.7,7.7-5.9,14.2-6.2c9.7-0.4,14.3,3.3,14.5,10.7
			c0.1,5.1,0.2,7.6,0.3,12.7c0,1.8,1.3,2.4,3,2.4c0.5,0,1-0.1,1.6-0.1C196.2,300.5,195.8,302.2,195.1,305.6z M181.9,289.4
			c-0.9,0.9-2.5,1.6-4.6,2.3c-2.7,0.9-3.9,2.1-3.8,4.6c0.1,1.6,1.2,2.5,3.3,2.4c2.1-0.1,4.8-1.7,5.3-4
			C182,292.5,181.9,291.5,181.9,289.4z"/>
		<path class="st12" d="M216.4,305.8c-9.1,0-17.2-5.9-17.4-17.4c-0.2-10.7,7-17.6,17.5-17.6c5.8,0,9.5,1.5,12.6,4.1
			c-1.4,3.2-2,4.8-3.4,8c-1.9-2.5-4.8-3.7-7.8-3.7c-4.2,0-8.6,2.9-8.6,9c0,6.2,4.2,9.2,8.8,9.2c2.9,0,6.3-1.4,8.1-3.9
			c1.2,3,1.8,4.5,3.1,7.5C226.1,304.3,222.5,305.8,216.4,305.8z"/>
		<path class="st12" d="M254.3,306c-2.8-5.3-4.3-8-7.2-13.3c-1,1.2-1.5,1.9-2.5,3.1c-0.1,3.9-0.2,5.9-0.3,9.8
			c-3.8-0.1-5.8-0.2-9.6-0.3c0.4-15.6,0.7-31.2,1.1-46.8c4.2,0.1,6.4,0.2,10.6,0.3c-0.2,6.9-0.4,10.3-0.6,17.1c-0.1,3.5-0.7,9-0.7,9
			c0.1,0,0.1,0,0.2,0c0,0,0.8-2.1,2.8-4.5c2.6-3.2,3.9-4.7,6.6-7.9c4.5,0.2,6.8,0.3,11.3,0.6c-4.8,5.1-7.1,7.7-11.8,12.9
			c4.6,8.2,6.8,12.3,11.2,20.6C260.9,306.3,258.7,306.2,254.3,306z"/>
		<path class="st12" d="M299.5,293.3c-9.1,0.3-13.7,0.5-22.7,1c0.5,3.5,3.5,5.7,7.5,6c3.7,0.3,7.4-1,9.7-3.9
			c1.7,2.6,2.6,3.9,4.3,6.5c-4.2,4.3-8.3,6.1-15.4,5.6c-9.8-0.8-15.8-7.9-15.2-18.6c0.6-9.6,6.9-17.1,17.7-16.3
			c9.8,0.8,15.3,8.1,14.3,18.3C299.7,292.4,299.6,292.9,299.5,293.3z M284.7,281.8c-4-0.3-6.9,1.9-7.6,5.8c5.4-0.3,8-0.5,13.4-0.7
			C290.4,284.1,288.2,282.1,284.7,281.8z"/>
		<path class="st12" d="M324.6,286.1c-3.7-0.5-6.6,0.7-8.2,3.5c-1,8.4-1.4,12.7-2.4,21.1c-4-0.5-6-0.7-10-1.1
			c1.1-11.1,2.3-22.2,3.4-33.2c3.6,0.4,5.4,0.6,8.9,1c-0.1,1.3-0.2,2-0.4,3.3c2.7-2.6,5.8-3.4,12-2.7c0.1,3.6,0.2,5.4,0.4,9.1
			C327,286.6,325.7,286.3,324.6,286.1z"/>
	</g>
</g>
</svg>
